# xmcd
#
# Track frame offsets: 
#        150
#        25075
#        44488
#        66184
#        80136
#        102438
#        119262
#        132660
#        148807
#        167044
#
# Disc length: 2402 seconds
#
# Revision: 2
# Processed by: cddbd v1.5.2PL0 Copyright (c) Steve Scherf et al.
# Submitted via: ExactAudioCopyFreeDBPlugin 1.0
#
DISCID=9509600a
DTITLE=Julee Karen - Lover's Jazz
DYEAR=2008
DGENRE=Jazz
TTITLE0=Do You Really Want To Hurt Me
TTITLE1=Every Breath You Take
TTITLE2=My Love
TTITLE3=Love
TTITLE4=Just The Way You Are
TTITLE5=You Can't Hurry Love
TTITLE6=The Secret Marriage
TTITLE7=I Saw The Light
TTITLE8=Open Arms
TTITLE9=Over The Rainbow
EXTD=YEAR: 2008
EXTT0=
EXTT1=
EXTT2=
EXTT3=
EXTT4=
EXTT5=
EXTT6=
EXTT7=
EXTT8=
EXTT9=
PLAYORDER=
